<svg xmlns="http://www.w3.org/2000/svg" xmlns:xlink="http://www.w3.org/1999/xlink" version="1.1" id="Camada_1" x="0px" y="0px" viewBox="0 0 415 180.3" style="enable-background:new 0 0 415 180.3;" xml:space="preserve">
<style type="text/css">
	.st0{fill:#F26522;}
	.st1{fill:#009A4E;}
</style>
<g>
	<path class="st0" d="M98.9,110.4v6.8c-0.5,7.1-5.1,7.9-11.9,8.3v16h45.8v-16c-6.8-0.4-11.4-1.3-11.9-8.4v-6.7L98.9,110.4z"/>
	<path class="st1" d="M21.5,82.2h111.6c0.7,0,1.2,0.6,1.2,1.3v0c0,0.7-0.5,1.3-1.2,1.3H21.5c-0.7,0-1.2-0.6-1.2-1.3v-0.1   C20.3,82.7,20.9,82.2,21.5,82.2"/>
	<path class="st1" d="M21.5,88.8h111.6c0.7,0,1.2,0.6,1.2,1.3v0c0,0.7-0.5,1.3-1.2,1.3H21.5c-0.7,0-1.2-0.6-1.2-1.3V90   C20.3,89.3,20.9,88.8,21.5,88.8"/>
	<path class="st1" d="M21.5,95.4h111.6c0.7,0,1.2,0.6,1.2,1.3v0c0,0.7-0.5,1.3-1.2,1.3H21.5c-0.7,0-1.2-0.6-1.2-1.3v-0.1   C20.3,95.9,20.9,95.4,21.5,95.4"/>
	<path class="st1" d="M21.5,102h111.6c0.7,0,1.2,0.6,1.2,1.3v0c0,0.7-0.5,1.3-1.2,1.3H21.5c-0.7,0-1.2-0.6-1.2-1.3v-0.1   C20.3,102.6,20.9,102,21.5,102"/>
	<path class="st1" d="M21.5,108.5h111.6c0.7,0,1.2,0.6,1.2,1.3v0c0,0.7-0.5,1.3-1.2,1.3H21.5c-0.7,0-1.2-0.6-1.2-1.3v-0.1   C20.3,109,20.9,108.5,21.5,108.5"/>
	<path class="st0" d="M22.1,125.5v15.9h46.1l-0.1-15.9c-3.3,0-5.4-0.3-6.8-1.5c-1.5-1.2-1.4-2.7,0.2-5.1l37.4-54.8v18.2h21.8V37   H94.4l-53.7,78.4C35.1,123.6,33.3,125.7,22.1,125.5"/>
	<path class="st1" d="M381.9,96.9c-1,3.8-2.2,6.6-3.5,8.3c-0.6,0.8-1.3,1.4-2,1.8c-0.9,0.5-1.9,0.8-2.9,0.8c-1.9,0-3.1-0.9-3.5-2.6   c-0.4-1.7-0.1-4.5,0.9-8.4c1-3.8,2.2-6.6,3.6-8.3c0.6-0.8,1.3-1.4,2-1.8c0.9-0.5,1.9-0.8,3-0.8c1.9,0,3.1,0.9,3.5,2.6   C383.2,90.3,382.9,93.1,381.9,96.9 M391.6,85.6c-2.2-2.7-6-4.1-11.2-4.1c-1.4,0-2.8,0.1-4.1,0.3c-3.5,0.5-6.6,1.8-9.3,3.8   c-3.7,2.7-6.2,6.5-7.5,11.3h0c-1.3,4.8-0.8,8.5,1.5,11.2c2.2,2.7,6,4.1,11.2,4.1c1.5,0,2.8-0.1,4.2-0.3c3.5-0.5,6.6-1.8,9.3-3.8   c3.7-2.7,6.2-6.5,7.5-11.3C394.3,92.1,393.9,88.3,391.6,85.6"/>
	<path class="st1" d="M342.7,97.9h-2.6l2.6-4.6l2.3-4.1l0.3,8.8H342.7z M356,106.8c-0.3-0.3-0.5-1.2-0.6-2.6l-0.9-21.8H344l-1.3,2.1   l-12.2,19.8c-0.6,1-1.3,1.8-1.9,2.3c-0.6,0.5-1.3,0.7-2,0.7h-1.1l-1.1,4.1h12.9l1.1-4.1H337c-0.6,0-1.1-0.1-1.4-0.2   c-0.3-0.1-0.4-0.3-0.4-0.6c0.1-0.2,0.1-0.4,0.3-0.7c0.1-0.2,0.3-0.6,0.6-1l1.6-2.8h5h2.8l0.2,3.1c0,0.2,0,0.4,0,0.6   c0,0.2-0.1,0.4-0.1,0.6c-0.1,0.3-0.3,0.6-0.5,0.7c-0.3,0.1-1,0.2-2.1,0.2h-0.2h-1.1l-1.1,4.1h2.2h15.4l1.1-4.1h-1.5   C356.8,107.3,356.3,107.1,356,106.8"/>
	<path class="st1" d="M318.6,96.9c-1,3.7-2.1,6.3-3.5,7.9c-0.4,0.5-0.9,1-1.5,1.3c-1.1,0.7-2.3,1-3.7,1h-2.3l5.5-20.5h0.4h1.8   c2.1,0,3.4,0.8,3.9,2.4C319.8,90.5,319.6,93.2,318.6,96.9 M329.8,96.9c1.3-4.9,0.9-8.5-1.3-10.9c-2.2-2.4-6.1-3.6-11.9-3.6h-2.9   h-12.8l-1.1,4.1h1.4c1,0,1.6,0.1,1.9,0.4c0.2,0.3,0.2,1-0.1,2.1l-4.2,15.8l-0.1,0.2c-0.3,1.1-0.6,1.7-1,1.9c-0.4,0.2-1,0.3-2,0.3   h-1.5l-1.1,4.1h15.7c1.7,0,3.3-0.1,4.8-0.3c3.6-0.5,6.6-1.6,9-3.3C326.1,105.4,328.5,101.8,329.8,96.9"/>
	<path class="st1" d="M276.1,97.9h-2.6l2.6-4.6l2.3-4.1l0.3,8.8H276.1z M289.4,106.8c-0.3-0.3-0.5-1.2-0.6-2.6l-0.9-21.8h-10.5   l-1.3,2.1l-12.2,19.8c-0.6,1-1.3,1.8-1.9,2.3c-0.6,0.5-1.3,0.7-2,0.7h-1.1l-1.1,4.1h12.9l1.1-4.1h-1.4c-0.6,0-1.1-0.1-1.4-0.2   c-0.3-0.1-0.4-0.3-0.4-0.6c0.1-0.2,0.1-0.4,0.3-0.7c0.1-0.2,0.3-0.6,0.6-1l1.6-2.8h5h2.8l0.2,3.1c0,0.2,0,0.4,0,0.6   c0,0.2-0.1,0.4-0.1,0.6c-0.1,0.3-0.3,0.6-0.6,0.7c-0.3,0.1-1,0.2-2.1,0.2h-0.2H275l-1.1,4.1h2.2h15.4l1.1-4.1h-1.5   C290.3,107.3,289.7,107.1,289.4,106.8"/>
	<path class="st1" d="M256.8,100.5c-0.8,2.4-2,4.3-3.6,5.7c-1.6,1.4-3.4,2.1-5.4,2.1c-2.2,0-3.5-0.9-4-2.6c-0.5-1.7-0.2-4.6,0.8-8.5   c1-3.8,2.2-6.6,3.6-8.3c1.4-1.7,3.1-2.6,5.1-2.6c1.8,0,3,0.6,3.7,1.9c0.7,1.3,0.9,3.3,0.7,6.1h5.2l3.2-11.9h-4.7l-1.2,1.6   c-1-0.7-2.2-1.2-3.5-1.5c-1.3-0.3-2.7-0.5-4.2-0.5c-4.7,0-8.8,1.4-12.3,4.2c-3.5,2.8-5.9,6.5-7.2,11.2c-1.3,4.9-1,8.7,1,11.4   c2,2.6,5.5,4,10.5,4c4.3,0,7.9-1,10.8-3.1c2.9-2.1,4.9-5.1,6.1-9H256.8z"/>
	<path class="st1" d="M215.6,97.9H213l2.6-4.6l2.3-4.1l0.3,8.8H215.6z M228.9,106.8c-0.3-0.3-0.5-1.2-0.6-2.6l-0.9-21.8h-10.5   l-1.3,2.1l-12.2,19.8c-0.6,1-1.3,1.8-1.9,2.3c-0.6,0.5-1.3,0.7-2,0.7h-1.1l-1.1,4.1h12.9l1.1-4.1h-1.4c-0.6,0-1.1-0.1-1.4-0.2   c-0.3-0.1-0.4-0.3-0.4-0.6c0.1-0.2,0.1-0.4,0.3-0.7c0.1-0.2,0.3-0.6,0.6-1l1.6-2.8h5h2.8l0.2,3.1c0,0.2,0,0.4,0,0.6   c0,0.2-0.1,0.4-0.1,0.6c-0.1,0.3-0.3,0.6-0.6,0.7c-0.3,0.1-1,0.2-2.1,0.2h-0.3h-1.1l-1.1,4.1h2.2H231l1.1-4.1h-1.5   C229.7,107.3,229.2,107.1,228.9,106.8"/>
	<path class="st1" d="M196.2,86.9h1.3c1.6,0,2.7,0.5,3.2,1.6c0.6,1.1,0.6,2.6,0,4.7l0,0.1h4.2l2.9-11h-30.5l-2.9,11h4.3l0-0.1   c0.5-2.1,1.4-3.6,2.5-4.7c1.1-1.1,2.5-1.6,4.1-1.6h1.3l-4.8,17.8c-0.3,1.2-0.7,1.9-1,2.1c-0.4,0.2-1,0.3-2,0.3h-2.3l-1.1,4.1h19.1   l1.1-4.1h-2.4c-1,0-1.6-0.1-1.9-0.4c-0.2-0.3-0.2-1,0.1-2.1L196.2,86.9z"/>
	<path class="st1" d="M158.4,97.9h-2.6l2.6-4.6l2.3-4.1l0.3,8.8H158.4z M171.7,106.8c-0.3-0.3-0.5-1.2-0.6-2.6l-0.9-21.8h-10.5   l-1.3,2.1l-12.2,19.8c-0.6,1-1.3,1.8-1.9,2.3c-0.6,0.5-1.3,0.7-2,0.7h-1.1l-1.1,4.1h12.9l1.1-4.1h-1.4c-0.6,0-1.1-0.1-1.4-0.2   c-0.3-0.1-0.4-0.3-0.4-0.6c0.1-0.2,0.1-0.4,0.3-0.7c0.1-0.2,0.3-0.6,0.6-1l1.6-2.8h5h2.8l0.2,3.1c0,0.2,0,0.4,0,0.6   c0,0.2-0.1,0.4-0.1,0.6c-0.1,0.3-0.3,0.6-0.6,0.7c-0.3,0.1-1,0.2-2.1,0.2h-0.3h-1l-1.1,4.1h2.2h15.4l1.1-4.1h-1.5   C172.6,107.3,172,107.1,171.7,106.8"/>
	<polygon class="st1" points="356.5,77 345.8,77 344.2,79.7 354.9,79.7  "/>
	<path class="st0" d="M177.7,61.1h2.1l-1.6,6h-2.5c0.1-0.8,0.1-1.3,0.1-1.6c0-0.3-0.1-0.8-0.3-1.5c-0.2-0.6-1-0.9-2.3-0.9   c-2.5,0-4.2,1.9-5.2,5.6c-0.5,1.9-0.6,3.3-0.2,4.3c0.4,1,1.2,1.5,2.4,1.5c1.1,0,2-0.3,2.7-1c0.7-0.7,1.3-1.7,1.8-3h2.5   c-0.3,1.1-0.6,1.9-0.9,2.5c-0.3,0.6-0.9,1.2-1.6,1.9c-0.7,0.7-1.6,1.2-2.7,1.6c-1.1,0.4-2.2,0.6-3.4,0.6c-2.4,0-4.2-0.8-5.2-2.3   c-1.1-1.5-1.3-3.5-0.6-6c0.6-2.4,1.9-4.3,3.7-5.8c1.8-1.5,3.9-2.3,6.2-2.3c0.9,0,1.7,0.1,2.2,0.3c0.5,0.2,0.9,0.4,1.1,0.5   c0.2,0.1,0.4,0.4,0.7,0.8L177.7,61.1z"/>
	<path class="st0" d="M183.4,69.3h3.1l-0.2-4.9L183.4,69.3z M175.7,74.4h0.6h0.3c0.2,0,0.4-0.1,0.7-0.3c0.3-0.2,0.5-0.4,0.7-0.7   l7.6-12.3h5.4l0.7,12.3c0,0.4,0.1,0.7,0.2,0.9c0.2,0.1,0.3,0.1,0.4,0.1c0.1,0,0.3,0,0.4,0h0.6l-0.6,2.3h-8.5l0.6-2.3h1.3h0.4   c0.1,0,0.1-0.1,0.2-0.3l0-0.7l-0.1-1.7H182l-1,1.7l-0.3,0.7c0,0.1,0,0.2,0,0.3c0.1,0,0.2,0.1,0.5,0.1h1.4l-0.6,2.3h-6.9L175.7,74.4   z"/>
	<path class="st0" d="M204.4,63.3l-1.1,4.1h2.6c0.5,0,0.9-0.2,1.3-0.6c0.4-0.4,0.7-0.9,0.8-1.4c0.2-0.7,0.2-1.2-0.1-1.6   c-0.2-0.3-0.8-0.5-1.5-0.5H204.4z M197.8,61.1h9.4c1.5,0,2.5,0,3.1,0.1c0.6,0.1,1.1,0.3,1.6,0.6c0.5,0.3,0.8,0.7,1,1.2   c0.2,0.5,0.1,1.2,0,1.8c-0.1,0.4-0.3,0.8-0.5,1.1c-0.2,0.4-0.5,0.7-0.8,1.1c-0.3,0.3-0.7,0.6-1,0.8c-0.3,0.2-0.9,0.4-1.8,0.6   c0.1,0.1,0.3,0.1,0.5,0.2c0.2,0.1,0.3,0.2,0.5,0.3c0.1,0.1,0.3,0.4,0.4,0.7c0.2,0.3,0.2,0.7,0.2,1c0,0.3-0.1,0.8-0.3,1.5l-0.3,0.9   c-0.1,0.3-0.1,0.5-0.1,0.8c0,0.4,0.1,0.6,0.4,0.6c0.5,0,0.9-0.5,1.2-1.5l0.2-0.6h1.8l-0.3,1.2c-0.3,1.1-0.8,1.9-1.7,2.5   c-0.8,0.6-1.9,0.9-3.1,0.9c-0.7,0-1.4-0.1-2-0.4c-0.6-0.3-0.9-0.7-1.1-1.4c-0.1-0.7,0-1.7,0.3-3c0.3-1,0.3-1.7,0.1-2   c-0.2-0.3-0.7-0.5-1.6-0.5h-1.4l-1,3.8c-0.1,0.5-0.2,0.7-0.1,0.8c0.1,0.1,0.3,0.2,0.7,0.2h1.4l-0.6,2.3h-9.5l0.6-2.3h1.4h0.5   c0.1,0,0.2,0,0.3-0.1c0.2-0.1,0.3-0.4,0.5-0.9l0.2-0.7l2.3-8.4c0.1-0.4,0.1-0.7,0-0.8l-0.3-0.2h-0.5h-1.4L197.8,61.1z"/>
	<path class="st0" d="M214.9,61.1h15.9l-1.6,6h-2.3l0.1-0.5c0.3-1,0.3-1.8,0-2.3c-0.3-0.6-0.8-0.8-1.5-0.8h-0.8l-2.7,10   c-0.1,0.4-0.1,0.7-0.1,0.8c0.1,0.1,0.3,0.2,0.7,0.2h1.4l-0.6,2.3h-9.6l0.6-2.3h1.4h0.3c0.2,0,0.3,0,0.5-0.1   c0.2-0.1,0.4-0.4,0.6-0.9l0.2-0.6l2.5-9.4H219c-0.7,0-1.4,0.3-2,0.9c-0.6,0.6-1,1.4-1.3,2.4l-0.1,0.5h-2.3L214.9,61.1z"/>
	<path class="st0" d="M232.8,69.3h3.1l-0.2-4.9L232.8,69.3z M225,74.4h0.6h0.3c0.2,0,0.4-0.1,0.7-0.3c0.3-0.2,0.5-0.4,0.7-0.7   l7.6-12.3h5.4l0.7,12.3c0,0.4,0.1,0.7,0.2,0.9c0.2,0.1,0.3,0.1,0.4,0.1c0.1,0,0.3,0,0.4,0h0.6l-0.6,2.3h-8.5l0.6-2.3h1.3h0.4   c0.1,0,0.1-0.1,0.2-0.3l0-0.7l-0.1-1.7h-4.6l-1,1.7l-0.3,0.7c0,0.1,0,0.2,0,0.3c0.1,0,0.2,0.1,0.5,0.1h1.4l-0.6,2.3h-6.9L225,74.4z   "/>
	<path class="st0" d="M248.5,68.7c-0.5,1.9-0.6,3.4-0.3,4.4c0.3,1,1,1.6,2,1.6c1,0,2-0.5,2.8-1.6c0.9-1.1,1.6-2.5,2.1-4.4   c0.5-1.9,0.6-3.4,0.3-4.4c-0.3-1-1-1.6-2-1.6c-1,0-1.9,0.5-2.8,1.6C249.7,65.4,249,66.8,248.5,68.7 M247.9,62.3   c1.8-1.2,3.8-1.8,6.1-1.8c2.2,0,4,0.6,5.3,1.9c1.3,1.3,1.6,3.4,0.8,6.3c-0.4,1.5-1,2.8-1.7,3.8c-0.7,1-1.8,2-3.3,3   c-1.5,1-3.4,1.5-5.6,1.5c-2.2,0-3.9-0.6-5.3-1.9c-1.3-1.3-1.6-3.4-0.8-6.3c0.4-1.5,0.9-2.7,1.7-3.8C245.8,63.9,246.7,63,247.9,62.3   "/>
	<polygon class="st0" points="235.9,58.3 241.3,58.3 240.5,59.7 235,59.7  "/>
</g>
</svg>