<svg xmlns="http://www.w3.org/2000/svg" version="1.1" xmlns:xlink="http://www.w3.org/1999/xlink" xmlns:svgjs="http://svgjs.com/svgjs" width="512" height="512" x="0" y="0" viewBox="0 0 512 512" style="enable-background:new 0 0 512 512" xml:space="preserve" class=""><g><path d="M247.531 208.129c-3.9-3.9-10.23-3.9-14.14 0-3.9 3.91-3.9 10.24 0 14.14 3.91 3.91 10.24 3.91 14.14 0 3.91-3.899 3.91-10.23 0-14.14z" fill="#3366ff" data-original="#000000" opacity="1" class=""></path><path d="M503.199 43.291 468.72 8.812a29.971 29.971 0 0 0-36.658-4.514l-21.961 13.181a10.001 10.001 0 0 0-1.925 15.646l2.056 2.056c-36.306 29.606-74.206 49.866-109.972 67.351-21.479 10.503-38.689 19.859-54.16 29.44-39.836 24.647-67.91 50.53-93.357 81.848-.585.734 2.107-3.209-37.425 56.016-20.709 30.45-32.605 46.677-56.038 53.946-48.718 15.128-67.362 55.746-56.101 85.734 5.548 14.805 19.7 33.131 43.263 56.024 22.601 23.252 41.456 37.815 56.043 43.288 29.769 11.199 70.62-7.342 85.734-56.096 7.269-23.416 23.504-35.322 53.89-55.998 59.027-39.361 55.529-36.998 56.134-37.489 31.853-25.391 58.549-55.814 81.593-92.988.078-.114.154-.231.227-.351 9.688-15.681 18.759-32.38 29.407-54.145 16.581-33.905 36.695-72.813 67.142-110.2l2.275 2.275c4.602 4.602 12.304 3.643 15.646-1.925l13.181-21.964a29.968 29.968 0 0 0-4.515-36.656zM230.935 380.147c-32.326 21.995-52.606 36.981-61.818 66.659-11.776 37.988-40.76 50.383-59.597 43.299-11.497-4.314-28.839-18.025-48.832-38.606a10.1 10.1 0 0 0-.207-.207c-26.358-25.593-35.525-40.661-38.576-48.802-7.18-19.12 5.807-47.963 43.302-59.606 29.694-9.21 44.67-29.483 66.698-61.873l30.163-45.207 114.148 114.148-45.281 30.195zm61.642-42.122L173.993 219.442c21.324-25.395 45.621-46.62 75.485-65.934l109.033 109.033c-19.288 29.825-40.515 54.125-65.934 75.484zm98.927-135.051c-8.025 16.402-15.105 29.803-22.233 42.039L267.003 142.746c12.235-7.139 25.637-14.222 42.042-22.246 37.376-18.273 77.074-39.533 115.401-71.104l37.953 37.953c-32.495 39.485-53.583 80.224-70.895 115.625zm99.061-133.315-6.59 10.98-52.602-52.603 10.977-6.588a9.993 9.993 0 0 1 12.226 1.506l34.48 34.48a9.996 9.996 0 0 1 1.509 12.225z" fill="#3366ff" data-original="#000000" opacity="1" class=""></path><path d="m304.104 264.7-28.281-28.281c-3.905-3.903-10.237-3.903-14.142 0-3.905 3.905-3.906 10.237 0 14.143l28.281 28.281c3.906 3.905 10.237 3.905 14.142 0 3.905-3.905 3.906-10.237 0-14.143z" fill="#3366ff" data-original="#000000" opacity="1" class=""></path></g></svg>