<svg xmlns="http://www.w3.org/2000/svg" version="1.1" xmlns:xlink="http://www.w3.org/1999/xlink" xmlns:svgjs="http://svgjs.com/svgjs" width="512" height="512" x="0" y="0" viewBox="0 0 424.819 424.819" style="enable-background:new 0 0 512 512" xml:space="preserve" class=""><g><path d="M359.214 88.832a7.858 7.858 0 0 0-.461-.013h-29.28l4.8-43.2 36.608-21.968-8.24-13.712-40 24a7.998 7.998 0 0 0-3.832 5.976l-5.44 48.904h-79.304l16.568-16.568 22.624-22.632a8 8 0 0 0 0-11.312c-49.536-50.434-130.578-51.162-181.012-1.626s-51.162 130.578-1.626 181.012c.539.548 1.082 1.092 1.63 1.63a7.94 7.94 0 0 0 5.656 2.344 8 8 0 0 0 5.656-2.344l22.624-22.624 20.944-20.944 11.624 209.232v31.832a8 8 0 0 0 8 8h176a8 8 0 0 0 8-8v-31.832l16-287.72a7.999 7.999 0 0 0-7.539-8.435zM98.097 202.155C57.595 155.404 62.661 84.67 109.412 44.168a112.002 112.002 0 0 1 73.341-27.349 111.2 111.2 0 0 1 73.344 27.344l-11.352 11.344c-.2-.168-.416-.312-.624-.48-.896-.752-1.832-1.424-2.76-2.136-1.456-1.136-2.92-2.256-4.432-3.296-1.016-.696-2.056-1.336-3.096-1.992a86.787 86.787 0 0 0-4.528-2.712 92.662 92.662 0 0 0-3.296-1.736 100.309 100.309 0 0 0-8.16-3.672c-1.6-.64-3.28-1.216-4.952-1.768-1.16-.384-2.312-.8-3.488-1.104-1.744-.504-3.512-.92-5.296-1.328-1.128-.256-2.248-.536-3.392-.752-1.976-.376-4-.632-5.976-.888-.976-.12-1.936-.288-2.92-.384-3-.28-6.024-.44-9.072-.44-52.996.057-95.943 43.004-96 96 0 3.048.16 6.072.44 9.072.096.984.264 1.944.384 2.92.256 2.008.512 4 .888 5.984.216 1.136.496 2.24.744 3.368.408 1.792.8 3.576 1.336 5.336.336 1.152.712 2.288 1.088 3.432a98.565 98.565 0 0 0 1.8 5.024c.448 1.128.912 2.248 1.4 3.36.72 1.6 1.48 3.2 2.288 4.8a113.669 113.669 0 0 0 1.664 3.2c.896 1.6 1.848 3.2 2.832 4.72.616.968 1.216 1.952 1.864 2.896 1.112 1.6 2.312 3.2 3.528 4.744.632.8 1.232 1.648 1.896 2.448.184.224.344.472.536.696l-11.344 11.336zm135.288-135.28-21.944 21.944h-20.688V49.251c.632.064 1.256.168 1.88.24 1.664.208 3.32.424 4.952.736.944.176 1.864.392 2.792.6 1.48.336 2.952.688 4.4 1.104.96.272 1.904.568 2.84.88 1.408.453 2.803.949 4.184 1.488.92.36 1.832.728 2.744 1.12 1.384.6 2.752 1.264 4.104 1.944.84.424 1.68.8 2.504 1.28 1.472.8 2.896 1.688 4.312 2.584.664.424 1.336.8 1.984 1.24 2.032 1.376 4 2.832 5.936 4.408zM120.849 78.227l22.088 22.088 1.144 20.504h-40.92a79.565 79.565 0 0 1 17.688-42.592zm-.04 101.224-.2-.264a86.977 86.977 0 0 1-4.176-5.6c-.488-.712-.912-1.456-1.376-2.192-.848-1.344-1.696-2.704-2.456-4.096-.48-.864-.904-1.752-1.344-2.632a70.266 70.266 0 0 1-1.888-4 49.21 49.21 0 0 1-1.144-2.808 81.222 81.222 0 0 1-1.472-4.12 85.89 85.89 0 0 1-.896-2.88c-.408-1.448-.8-2.904-1.088-4.376-.208-.928-.432-1.864-.608-2.808-.304-1.6-.528-3.28-.736-4.936-.072-.632-.176-1.264-.24-1.896h41.784l.968 17.504-25.128 25.104zm33.256-90.632-21.904-21.904a79.565 79.565 0 0 1 42.592-17.688v39.592h-20.688zm5.144 16h152.344l-8 71.696a48.537 48.537 0 0 1-43.2-13.352c-25.232-25.175-66.08-25.175-91.312 0l-6.296 6.296-3.536-64.64zm175.544 304h-160v-16h160v16zm.432-32H174.321l-10.328-185.928 16.416-16.416c18.984-18.929 49.704-18.929 68.688 0 25.232 25.175 66.08 25.175 91.312 0l6.4-6.4-11.624 208.744zm12.928-232.672-19.016 19.016a48.284 48.284 0 0 1-8.64 6.752l7.232-65.096h22.608l-2.184 39.328z" fill="#3366ff" data-original="#000000" opacity="1" class=""></path><path d="M198.753 200.819h16v16h-16zM246.753 264.819h16v16h-16zM294.753 328.819h16v16h-16zM302.753 224.819h16v16h-16zM206.753 320.819h16v16h-16z" fill="#3366ff" data-original="#000000" opacity="1" class=""></path></g></svg>