<svg xmlns="http://www.w3.org/2000/svg" version="1.1" xmlns:xlink="http://www.w3.org/1999/xlink" xmlns:svgjs="http://svgjs.com/svgjs" width="512" height="512" x="0" y="0" viewBox="0 0 32 32" style="enable-background:new 0 0 512 512" xml:space="preserve" class=""><g><path d="M4.909 27.058a26.5 26.5 0 0 0 22.182 0 2.481 2.481 0 0 0 1.312-1.489 2.524 2.524 0 0 0-.203-2.01l-.934-1.653v-.002l-.003-.002L16.435 2.745a.52.52 0 0 0-.87 0L4.737 21.902l-.002.002v.002L3.8 23.56a2.524 2.524 0 0 0-.203 2.01 2.482 2.482 0 0 0 1.312 1.49zM16 4.008l10.14 17.94a21.496 21.496 0 0 1-20.28 0zM4.67 24.052l.698-1.233a22.489 22.489 0 0 0 21.264 0l.697 1.233a1.521 1.521 0 0 1 .123 1.21 1.456 1.456 0 0 1-.782.888 25.492 25.492 0 0 1-21.34 0 1.457 1.457 0 0 1-.782-.888 1.521 1.521 0 0 1 .123-1.21zm6.83-1.561a2 2 0 1 0-2-2 2.002 2.002 0 0 0 2 2zm0-3a1 1 0 1 1-1 1 1.001 1.001 0 0 1 1-1zm5-3a2 2 0 1 0 2-2 2.002 2.002 0 0 0-2 2zm3 0a1 1 0 1 1-1-1 1.001 1.001 0 0 1 1 1zm.974 5.658a.5.5 0 0 1-.632.317l-3-1a.5.5 0 0 1 .316-.95l3 1a.5.5 0 0 1 .316.633zm-8.828-5.804a.5.5 0 0 1 0-.707l2-2a.5.5 0 1 1 .707.707l-2 2a.5.5 0 0 1-.707 0zm4-6a.5.5 0 1 1 .707-.707l2 2a.5.5 0 1 1-.707.707z" data-name="Layer 1" fill="#3366ff" data-original="#000000" class="" opacity="1"></path></g></svg>