<svg xmlns="http://www.w3.org/2000/svg" version="1.1" xmlns:xlink="http://www.w3.org/1999/xlink" xmlns:svgjs="http://svgjs.com/svgjs" width="512" height="512" x="0" y="0" viewBox="0 0 512 512" style="enable-background:new 0 0 512 512" xml:space="preserve" class=""><g><path d="M198.882 125.904c32.184-30.986 75.844-50.023 123.928-50.023C421.774 75.881 502 156.523 502 256s-80.226 180.119-179.189 180.119c-55.661 0-105.394-25.51-138.26-65.533" style="stroke-width:20;stroke-linecap:round;stroke-linejoin:round;stroke-miterlimit:10;" fill="none" stroke="#3366ff" stroke-width="20" stroke-linecap="round" stroke-linejoin="round" stroke-miterlimit="10" data-original="#000000" opacity="1" class=""></path><ellipse cx="322.811" cy="256" rx="121.699" ry="122.331" style="stroke-width:20;stroke-linecap:round;stroke-linejoin:round;stroke-miterlimit:10;" fill="none" stroke="#3366ff" stroke-width="20" stroke-linecap="round" stroke-linejoin="round" stroke-miterlimit="10" data-original="#000000" opacity="1" class=""></ellipse><path d="m361.842 216.766-78.063 78.468M348.794 298.307h0M296.827 213.693h0M139.869 306.543v98.33c0 12.236 9.868 22.155 22.04 22.155h0c12.173 0 22.04-9.919 22.04-22.155v-98.33h-44.08zM139.869 84.972h0v221.571h61.338V146.628c0-34.052-27.462-61.656-61.338-61.656zM28.876 251.216v153.657c0 12.236 9.868 22.155 22.04 22.155h0c12.173 0 22.04-9.919 22.04-22.155V251.216h-44.08zM50.917 86.209v162.467M91.834 86.209v65.264c0 12.204-9.842 22.097-21.983 22.097H31.983C19.842 173.57 10 163.677 10 151.473V86.209" style="stroke-width:20;stroke-linecap:round;stroke-linejoin:round;stroke-miterlimit:10;" fill="none" stroke="#3366ff" stroke-width="20" stroke-linecap="round" stroke-linejoin="round" stroke-miterlimit="10" data-original="#000000" opacity="1" class=""></path></g></svg>