<svg xmlns="http://www.w3.org/2000/svg" version="1.1" xmlns:xlink="http://www.w3.org/1999/xlink" xmlns:svgjs="http://svgjs.com/svgjs" class="c7n6y ceob2 chcsl" viewBox="0 0 24 24">
    <path class="text-indigo-500 c3wll" d="M12 0C5.383 0 0 5.383 0 12s5.383 12 12 12 12-5.383 12-12S18.617 0 12 0z"></path>
    <path class="text-indigo-600 c3wll" d="M12 3c-4.963 0-9 4.037-9 9s4.037 9 9 9 9-4.037 9-9-4.037-9-9-9z"></path>
    <path class="text-indigo-200 c3wll" d="M12 15c-1.654 0-3-1.346-3-3 0-.462.113-.894.3-1.285L6 6l4.714 3.301A2.973 2.973 0 0112 9c1.654 0 3 1.346 3 3s-1.346 3-3 3z"></path>
</svg>